<svg width="280" height="398" viewBox="0 0 280 398" fill="none" xmlns="http://www.w3.org/2000/svg">
<path d="M82.5 49H198L253 397H28L82.5 49Z" fill="#343130"/>
<path d="M135.682 1.11249C137.039 0.412292 138.516 0.0428772 140 0.00350952C141.484 0.0428772 142.961 0.412292 144.318 1.11249L202.815 31.283C207.682 33.7931 211.306 38.1892 212.843 43.4453L279.694 397.408H234.335L190.986 79.0158C189.976 74.6696 189.471 72.4966 188.298 70.8685C187.219 69.3704 185.746 68.2003 184.042 67.488C182.191 66.714 179.96 66.714 175.498 66.714H104.502C100.04 66.714 97.809 66.714 95.9578 67.488C94.2543 68.2003 92.7812 69.3704 91.7019 70.8685C90.529 72.4966 90.0241 74.6696 89.0144 79.0158L45.665 397.408H0.30603L67.1569 43.4453C68.6936 38.1892 72.3184 33.7931 77.1853 31.283L135.682 1.11249Z" fill="#B4A888"/>
</svg>
