<svg width="338" height="338" viewBox="0 0 338 338" fill="none" xmlns="http://www.w3.org/2000/svg">
<circle cx="169" cy="169" r="169" fill="black"/>
<path fill-rule="evenodd" clip-rule="evenodd" d="M241.468 72.3118C239.954 67.1342 236.413 62.7877 231.648 60.2587L174.954 30.1671C172.059 28.6305 168.594 28.6101 165.682 30.1125L107.185 60.283C102.318 62.7932 98.6936 67.1892 97.1568 72.4452L54.4823 218.398C49.2701 233.804 36.3135 245.641 20.2456 249.275C30.6669 268.546 44.7235 285.562 61.4962 299.405C71.8575 292.485 79.3241 281.57 81.6951 268.863L119.014 108.016C120.024 103.67 120.529 101.497 121.702 99.8686C122.781 98.3704 124.254 97.2004 125.958 96.4881C127.809 95.714 130.04 95.714 134.502 95.714H203.162C207.624 95.714 209.855 95.714 211.706 96.4881C213.409 97.2004 214.883 98.3704 215.962 99.8686C217.135 101.496 217.64 103.67 218.649 108.016L256.147 269.417C256.2 269.683 256.257 269.949 256.315 270.214C258.993 282.388 266.374 292.799 276.457 299.444C293.266 285.581 307.35 268.532 317.783 249.222C301.896 245.378 289.15 233.49 284.098 218.112L241.468 72.3118ZM78.3997 311.688C95.2602 322.416 114.151 330.238 134.366 334.448C145.545 336.776 157.13 338 169 338C180.87 338 192.455 336.776 203.634 334.448C224.615 330.078 244.168 321.819 261.506 310.457C255.023 314.506 247.363 316.845 239.157 316.845C217.869 316.845 200.258 301.101 197.334 280.622L197.085 278.494C197.061 278.241 197.025 277.988 196.989 277.733C196.94 277.386 196.89 277.038 196.873 276.688L179.517 128.419C179.222 125.899 177.088 124 174.551 124H163.449C160.912 124 158.778 125.899 158.483 128.419L141.127 276.688C141.119 276.847 141.096 277.005 141.073 277.163C141.052 277.302 141.032 277.442 141.022 277.581L140.561 281.525C137.254 301.562 119.85 316.845 98.8761 316.845C91.4468 316.845 84.4654 314.928 78.3997 311.561V311.688ZM263.752 308.953C263.687 309 263.621 309.046 263.555 309.093L263.752 308.96V308.953Z" fill="white"/>
</svg>
