<svg width="338" height="338" viewBox="0 0 338 338" fill="none" xmlns="http://www.w3.org/2000/svg">
<circle cx="169" cy="169" r="169" fill="black"/>
<path fill-rule="evenodd" clip-rule="evenodd" d="M241.468 72.3118C239.954 67.1342 236.413 62.7877 231.648 60.2587L174.954 30.1671C172.059 28.6305 168.594 28.6101 165.682 30.1125L107.185 60.283C102.318 62.7932 98.6936 67.1892 97.1568 72.4452L41.2041 263.811C40.2682 267.012 42.6684 270.214 46.0032 270.214H292.661C295.995 270.214 298.396 267.012 297.46 263.811L241.468 72.3118ZM121.702 99.8686C120.529 101.497 120.024 103.67 119.014 108.016L81.3319 270.214L144.332 270.214L152.471 192.354L152.542 192.325L152.485 192.217L159.126 128.694C159.392 126.148 161.539 124.214 164.099 124.214H173.565C176.125 124.214 178.272 126.148 178.538 128.694L185.1 191.47L184.652 192.325L185.214 192.558L193.332 270.214L256.332 270.214L218.649 108.016C217.64 103.67 217.135 101.496 215.962 99.8686C214.883 98.3704 213.409 97.2004 211.706 96.4881C209.855 95.714 207.624 95.714 203.162 95.714H134.502C130.04 95.714 127.809 95.714 125.958 96.4881C124.254 97.2004 122.781 98.3704 121.702 99.8686Z" fill="white"/>
</svg>
