<svg width="513" height="513" viewBox="0 0 513 513" fill="none" xmlns="http://www.w3.org/2000/svg">
<circle cx="256.834" cy="256.834" r="256" fill="black"/>
<circle cx="256.834" cy="256.834" r="236.201" fill="#343130"/>
<path fill-rule="evenodd" clip-rule="evenodd" d="M358.118 121.699C356.002 114.462 351.053 108.387 344.393 104.853L265.155 62.7957C261.109 60.6481 256.267 60.6196 252.196 62.7194L170.439 104.887C163.637 108.395 158.571 114.539 156.423 121.885L96.7795 325.874C89.4948 347.407 71.3861 363.951 48.929 369.03C63.4942 395.963 83.1403 419.746 106.583 439.093C121.064 429.421 131.499 414.167 134.813 396.406L186.972 171.6C188.383 165.526 189.089 162.488 190.728 160.213C192.237 158.119 194.296 156.484 196.676 155.488C199.264 154.407 202.382 154.407 208.618 154.407H304.58C310.816 154.407 313.934 154.407 316.521 155.488C318.902 156.484 320.961 158.119 322.47 160.213C324.109 162.488 324.815 165.526 326.226 171.6L378.633 397.18C378.709 397.553 378.787 397.924 378.868 398.294C382.611 415.31 392.927 429.86 407.019 439.147C430.513 419.772 450.196 395.944 464.779 368.955C442.575 363.583 424.76 346.968 417.699 325.475L358.118 121.699ZM235.946 198.126V492.124C242.828 492.727 249.795 493.035 256.834 493.035C263.55 493.035 270.201 492.754 276.775 492.205V198.126C276.775 194.26 273.641 191.126 269.775 191.126H242.946C239.08 191.126 235.946 194.26 235.946 198.126Z" fill="#B4A888"/>
</svg>
