<svg width="142" height="142" viewBox="0 0 142 142" fill="none" xmlns="http://www.w3.org/2000/svg">
<path fill-rule="evenodd" clip-rule="evenodd" d="M30.5988 0C30.7314 0.00875303 30.8652 0.0131989 31 0.0131989H53.745C56.9493 0.0131989 59.5881 2.53102 59.7384 5.73179L61.642 46.2752C61.8424 50.5429 65.3608 53.9 69.6332 53.9H72.3668C76.6392 53.9 80.1576 50.5429 80.358 46.2752L82.2616 5.73179C82.4119 2.53102 85.0507 0.0131989 88.255 0.0131989H109C109.135 0.0131989 109.269 0.00875303 109.401 0H134.589C137.173 0 138.465 0 139.391 0.532246C140.169 0.979782 140.774 1.67622 141.109 2.50947C141.507 3.50043 141.327 4.77968 140.966 7.33818L124.342 125.375C123.503 131.33 123.083 134.308 121.633 136.54C120.409 138.423 118.68 139.926 116.644 140.875C114.233 142 111.225 142 105.21 142H36.7896C30.7748 142 27.7674 142 25.356 140.875C23.3198 139.926 21.5911 138.423 20.3667 136.54C18.9167 134.308 18.4973 131.33 17.6584 125.375L1.03355 7.33818C0.673194 4.77968 0.493019 3.50043 0.890946 2.50947C1.22554 1.67622 1.83076 0.979782 2.6092 0.532246C3.53498 0 4.82686 0 7.4106 0H30.5988Z" fill="#D9D9D9"/>
</svg>
